<?xml version="1.0" encoding="UTF-8"?>
<svg width="350px" height="350px" viewBox="0 0 350 350" version="1.1" xmlns="http://www.w3.org/2000/svg" xmlns:xlink="http://www.w3.org/1999/xlink">
    <!-- Generator: Sketch 52.6 (67491) - http://www.bohemiancoding.com/sketch -->
    <title>Slice 1</title>
    <desc>Created with Sketch.</desc>
    <g id="Page-1" stroke="none" stroke-width="1" fill="none" fill-rule="evenodd">
        <circle id="Oval" fill="#000000" cx="175" cy="175" r="175"></circle>
        <path d="M132.016,194.096 C132.016,202.832044 134.563975,210.007972 139.66,215.624 C144.756025,221.240028 151.25596,224.048 159.16,224.048 C166.024034,224.048 172.367971,221.812022 178.192,217.34 C184.016029,212.867978 189.111978,207.304033 193.48,200.648 C197.848022,193.991967 201.279988,186.816038 203.776,179.12 C206.272012,171.423962 207.52,164.352032 207.52,157.904 C207.52,153.95198 206.792007,150.208018 205.336,146.672 C203.879993,143.135982 202.008011,140.016014 199.72,137.312 C197.431989,134.607986 194.780015,132.476008 191.764,130.916 C188.747985,129.355992 185.576017,128.576 182.248,128.576 C174.967964,128.576 168.260031,130.707979 162.124,134.972 C155.987969,139.236021 150.684022,144.643967 146.212,151.196 C141.739978,157.748033 138.256012,164.819962 135.76,172.412 C133.263988,180.004038 132.016,187.231966 132.016,194.096 Z M217.192,202.208 C216.359996,204.704012 215.684003,207.355986 215.164,210.164 C214.643997,212.972014 214.384,215.519989 214.384,217.808 C214.384,221.968021 216.879975,224.048 221.872,224.048 C226.864025,224.048 231.959974,222.124019 237.16,218.276 C242.360026,214.427981 247.039979,209.332032 251.2,202.988 C255.360021,196.643968 258.791986,189.416041 261.496,181.304 C264.200014,173.191959 265.552,164.768044 265.552,156.032 C265.552,143.759939 263.160024,132.684049 258.376,122.804 C253.591976,112.923951 247.24804,104.500035 239.344,97.532 C231.43996,90.5639652 222.392051,85.2080187 212.2,81.464 C202.007949,77.7199813 191.504054,75.848 180.688,75.848 C167.167932,75.848 154.584058,78.4999735 142.936,83.804 C131.287942,89.1080265 121.148043,96.2839548 112.516,105.332 C103.883957,114.380045 97.072025,124.93594 92.08,137 C87.087975,149.06406 84.592,161.751933 84.592,175.064 C84.592,189.00007 87.191974,201.99994 92.392,214.064 C97.592026,226.12806 104.559956,236.631955 113.296,245.576 C122.032044,254.520045 132.223942,261.539975 143.872,266.636 C155.520058,271.732025 167.791936,274.28 180.688,274.28 C196.288078,274.28 211.159929,270.848034 225.304,263.984 C239.448071,257.119966 250.783957,247.968057 259.312,236.528 L278.968,236.528 C273.975975,245.056043 267.944035,252.699966 260.872,259.46 C253.799965,266.220034 246.000043,271.939977 237.472,276.62 C228.943957,281.300023 219.896048,284.887988 210.328,287.384 C200.759952,289.880012 190.880051,291.128 180.688,291.128 C164.255918,291.128 148.968071,288.11203 134.824,282.08 C120.679929,276.04797 108.356053,267.780053 97.852,257.276 C87.3479475,246.771947 79.0800302,234.50007 73.048,220.46 C67.0159698,206.41993 64,191.288081 64,175.064 C64,158.839919 67.0679693,143.656071 73.204,129.512 C79.3400307,115.367929 87.711947,103.096052 98.32,92.696 C108.928053,82.295948 121.303929,74.0800302 135.448,68.048 C149.592071,62.0159698 164.67192,59 180.688,59 C195.040072,59 208.559937,61.3399766 221.248,66.02 C233.936063,70.7000234 245.115952,77.2519579 254.788,85.676 C264.460048,94.1000421 272.103972,104.187941 277.72,115.94 C283.336028,127.692059 286.144,140.53593 286.144,154.472 C286.144,167.992068 283.700024,180.263945 278.812,191.288 C273.923976,202.312055 267.840036,211.77596 260.56,219.68 C253.279964,227.58404 245.376043,233.719978 236.848,238.088 C228.319957,242.456022 220.416036,244.64 213.136,244.64 C207.727973,244.64 203.152019,242.976017 199.408,239.648 C195.663981,236.319983 193.584002,231.120035 193.168,224.048 L192.544,224.048 C187.759976,229.664028 182.35203,234.49998 176.32,238.556 C170.28797,242.61202 162.696046,244.64 153.544,244.64 C146.887967,244.64 140.856027,243.392012 135.448,240.896 C130.039973,238.399988 125.412019,234.968022 121.564,230.6 C117.715981,226.231978 114.75201,221.136029 112.672,215.312 C110.59199,209.487971 109.552,203.144034 109.552,196.28 C109.552,185.463946 111.267983,174.752053 114.7,164.144 C118.132017,153.535947 123.019968,144.072042 129.364,135.752 C135.708032,127.431958 143.351955,120.724025 152.296,115.628 C161.240045,110.531975 171.223945,107.984 182.248,107.984 C189.528036,107.984 196.235969,109.907981 202.372,113.756 C208.508031,117.604019 213.343982,124.207953 216.88,133.568 L217.504,133.568 L223.12,113.912 L243.4,113.912 L217.192,202.208 Z" id="@" fill="#FFFFFF"></path>
    </g>
</svg>